<?xml version="1.0" encoding="iso-8859-1"?>
<!-- Generator: Adobe Illustrator 24.1.2, SVG Export Plug-In . SVG Version: 6.00 Build 0)  -->
<svg version="1.1" xmlns="http://www.w3.org/2000/svg" xmlns:xlink="http://www.w3.org/1999/xlink" x="0px" y="0px"
	 viewBox="0 0 48 48" style="enable-background:new 0 0 48 48;" xml:space="preserve">
<g id="Layer_10" style="display:none;">
	<g style="display:inline;opacity:0.05;">
		<g>
			<circle style="fill:#FFFFFF;" cx="30" cy="24" r="19.5"/>
			<path d="M30,5c10.477,0,19,8.523,19,19s-8.523,19-19,19s-19-8.523-19-19S19.523,5,30,5 M30,4c-11.046,0-20,8.954-20,20
				s8.954,20,20,20s20-8.954,20-20S41.046,4,30,4L30,4z"/>
		</g>
		<g>
			<rect x="12.5" y="6.5" style="fill:#FFFFFF;" width="35" height="35"/>
			<path d="M47,7v34H13V7H47 M48,6H12v36h36V6L48,6z"/>
		</g>
	</g>
</g>
<g id="filled">
</g>
<g id="outlined">
</g>
<g id="rounded">
</g>
<g id="two_x5F_tone">
</g>
<g id="sharp">
</g>
<g id="win10">
</g>
<g id="ios_x5F_out">
</g>
<g id="ios_x5F_filled">
</g>
<g id="color">
	<rect x="18" y="8" style="fill:#76B900;" width="29" height="32"/>
	<path style="fill:#FAFAFA;" d="M18,17.68c0.52-0.05,1.05-0.09,1.57-0.07c4.95,0,7.9,3.85,7.9,3.85l-4.03,3.39
		c-1.8-3.02-2.43-4.35-5.44-4.71V17.68z M18,28.72c0.73,0.24,1.52,0.36,2.3,0.36c5.88,0,11.35-7.6,11.35-7.6s-5.07-6.91-12.81-6.66
		c-0.28,0-0.56,0.02-0.84,0.03v-2.3l0.84-0.05c10.76-0.37,17.78,8.82,17.78,8.82s-8.05,9.8-16.44,9.8c-0.73,0-1.47-0.07-2.18-0.19
		V28.72z M19.95,36.09c-0.66,0-1.32-0.03-1.95-0.1v-2.44c0.59,0.07,1.22,0.12,1.81,0.12c7.82,0,13.47-3.99,18.94-8.7
		c0.91,0.73,4.62,2.49,5.39,3.26C38.94,32.59,26.82,36.09,19.95,36.09z"/>
	<path style="fill:#76B900;" d="M18,28.717v2.232c-7.219-1.29-9.225-8.806-9.225-8.806s3.47-3.836,9.225-4.464v2.441h-0.017
		c-3.017-0.366-5.388,2.459-5.388,2.459S13.937,27.339,18,28.717"/>
	<path style="fill:#76B900;" d="M5.183,21.829c0,0,4.272-6.313,12.834-6.975v-2.302c-9.486,0.767-17.682,8.789-17.682,8.789
		S4.974,34.768,18,35.989v-2.441C8.444,32.361,5.183,21.829,5.183,21.829z"/>
</g>
<g id="fluent">
</g>
</svg>